<svg width="16" height="16" viewBox="0 0 16 16" fill="none" xmlns="http://www.w3.org/2000/svg">
<path d="M2 15H9C9.53125 15 10 14.5625 10 14V12.5C10 12.25 10.2188 12 10.5 12C10.75 12 11 12.25 11 12.5V14C11 15.125 10.0938 16 9 16H2C0.875 16 0 15.125 0 14V7C0 5.90625 0.875 5 2 5H3.5C3.75 5 4 5.25 4 5.5C4 5.78125 3.75 6 3.5 6H2C1.4375 6 1 6.46875 1 7V14C1 14.5625 1.4375 15 2 15ZM5 2C5 0.90625 5.875 0 7 0H14C15.0938 0 16 0.90625 16 2V9C16 10.125 15.0938 11 14 11H7C5.875 11 5 10.125 5 9V2ZM7 10H14C14.5312 10 15 9.5625 15 9V2C15 1.46875 14.5312 1 14 1H7C6.4375 1 6 1.46875 6 2V9C6 9.5625 6.4375 10 7 10Z" fill="#0093FC"/>
</svg>
